<svg width="36" height="36" viewBox="0 0 36 36" fill="none" xmlns="http://www.w3.org/2000/svg">
<circle cx="18" cy="28" r="2.5" transform="rotate(90 18 28)" fill="#4185F4"/>
<circle cx="32.5" cy="18" r="2" transform="rotate(90 32.5 18)" fill="#4185F4"/>
<circle cx="3.5" cy="18" r="2" transform="rotate(90 3.5 18)" fill="#4185F4"/>
<circle cx="10.5" cy="32.5" r="2" transform="rotate(90 10.5 32.5)" fill="#4185F4"/>
<circle cx="10.5" cy="3.5" r="2" transform="rotate(90 10.5 3.5)" fill="#4185F4"/>
<circle cx="24.5" cy="32.5" r="2" transform="rotate(90 24.5 32.5)" fill="#4185F4"/>
<circle cx="25.5" cy="3.5" r="2" transform="rotate(90 25.5 3.5)" fill="#4185F4"/>
<circle cx="18" cy="18" r="2.5" transform="rotate(90 18 18)" fill="#4185F4"/>
<circle cx="18" cy="8" r="2.5" transform="rotate(90 18 8)" fill="#4185F4"/>
<circle cx="27" cy="13" r="2.5" transform="rotate(90 27 13)" fill="#4185F4"/>
<circle cx="27" cy="23" r="2.5" transform="rotate(90 27 23)" fill="#4185F4"/>
<circle cx="9" cy="13" r="2.5" transform="rotate(90 9 13)" fill="#4185F4"/>
<circle cx="9" cy="23" r="2.5" transform="rotate(90 9 23)" fill="#4185F4"/>
<path d="M7.5 13.5L10.5 13.5C9.5 18 9.5 18 10.5 22.5L7.5 22.5C8.5 18 8.5 18 7.5 13.5Z" fill="#4185F4"/>
<path d="M17.7057 9.54907L19.2058 6.95101C22.6029 10.067 22.6029 10.067 27 11.451L25.5 14.0491C22.1029 10.933 22.1029 10.933 17.7057 9.54907Z" fill="#4185F4"/>
<path d="M17.7057 19.5491L19.2058 16.951C22.6029 20.067 22.6029 20.067 27 21.451L25.5 24.0491C22.1029 20.933 22.1029 20.933 17.7057 19.5491Z" fill="#4185F4"/>
<path d="M17.7057 16.4509L19.2058 19.049C22.6029 15.933 22.6029 15.933 27 14.549L25.5 11.9509C22.1029 15.067 22.1029 15.067 17.7057 16.4509Z" fill="#4185F4"/>
<path d="M17.7057 26.4509L19.2058 29.049C22.6029 25.933 22.6029 25.933 27 24.549L25.5 21.9509C22.1029 25.067 22.1029 25.067 17.7057 26.4509Z" fill="#4185F4"/>
<path d="M18.1471 26.4509L16.6471 29.049C13.25 25.933 13.25 25.933 8.85287 24.549L10.3528 21.9509C13.75 25.067 13.75 25.067 18.1471 26.4509Z" fill="#4185F4"/>
</svg>
