<svg width="36" height="36" viewBox="0 0 36 36" fill="none" xmlns="http://www.w3.org/2000/svg">
<circle cx="18" cy="28" r="2.5" transform="rotate(90 18 28)" fill="#4185F4"/>
<circle cx="32.5" cy="18" r="2" transform="rotate(90 32.5 18)" fill="#4185F4"/>
<circle cx="3.5" cy="18" r="2" transform="rotate(90 3.5 18)" fill="#4185F4"/>
<circle cx="10.5" cy="32.5" r="2" transform="rotate(90 10.5 32.5)" fill="#4185F4"/>
<circle cx="10.5" cy="3.5" r="2" transform="rotate(90 10.5 3.5)" fill="#4185F4"/>
<circle cx="25.5" cy="32.5" r="2" transform="rotate(90 25.5 32.5)" fill="#4185F4"/>
<circle cx="25.5" cy="3.5" r="2" transform="rotate(90 25.5 3.5)" fill="#4185F4"/>
<circle cx="18" cy="18" r="2.5" transform="rotate(90 18 18)" fill="#4185F4"/>
<circle cx="18" cy="8" r="2.5" transform="rotate(90 18 8)" fill="#4185F4"/>
<circle cx="27" cy="13" r="2.5" transform="rotate(90 27 13)" fill="#4185F4"/>
<circle cx="27" cy="23" r="2.5" transform="rotate(90 27 23)" fill="#4185F4"/>
<circle cx="9" cy="13" r="2.5" transform="rotate(90 9 13)" fill="#4185F4"/>
<circle cx="9" cy="23" r="2.5" transform="rotate(90 9 23)" fill="#4185F4"/>
<path d="M7.5 13.5L10.5 13.5C9.5 18 9.5 18 10.5 22.5L7.5 22.5C8.5 18 8.5 18 7.5 13.5Z" fill="#4185F4"/>
<path d="M17.7765 9.54901L19.2765 6.95095C22.6736 10.067 22.6736 10.067 27.0707 11.4509L25.5707 14.049C22.1736 10.933 22.1736 10.933 17.7765 9.54901Z" fill="#4185F4"/>
<path d="M17.7765 19.5L19.2765 16.9019C22.6736 20.0179 22.6736 20.0179 27.0707 21.4019L25.5707 24C22.1736 20.884 22.1736 20.884 17.7765 19.5Z" fill="#4185F4"/>
<path d="M18.1125 25.9716L19.6126 28.5696C23.0097 25.4536 23.0097 25.4536 27.4068 24.0696L25.9068 21.4715C22.5097 24.5876 22.5097 24.5876 18.1125 25.9716Z" fill="#4185F4"/>
<path d="M17.6817 9.83551L16.1817 7.23745C12.7846 10.3535 12.7846 10.3535 8.38747 11.7374L9.88745 14.3355C13.2846 11.2195 13.2846 11.2195 17.6817 9.83551Z" fill="#4185F4"/>
<path d="M17.2943 25.9716L15.7942 28.5696C12.3971 25.4536 12.3971 25.4536 8.00002 24.0696L9.5 21.4715C12.8971 24.5876 12.8971 24.5876 17.2943 25.9716Z" fill="#4185F4"/>
</svg>
