<svg width="36" height="36" viewBox="0 0 36 36" fill="none" xmlns="http://www.w3.org/2000/svg">
<circle cx="18" cy="28" r="2.5" transform="rotate(90 18 28)" fill="#4185F4"/>
<circle cx="32.5" cy="18" r="2" transform="rotate(90 32.5 18)" fill="#4185F4"/>
<circle cx="3.5" cy="18" r="2" transform="rotate(90 3.5 18)" fill="#4185F4"/>
<circle cx="10.5" cy="32.5" r="2" transform="rotate(90 10.5 32.5)" fill="#4185F4"/>
<circle cx="10.5" cy="3.5" r="2" transform="rotate(90 10.5 3.5)" fill="#4185F4"/>
<circle cx="25.5" cy="32.5" r="2" transform="rotate(90 25.5 32.5)" fill="#4185F4"/>
<circle cx="25.5" cy="3.5" r="2" transform="rotate(90 25.5 3.5)" fill="#4185F4"/>
<circle cx="18" cy="18" r="2.5" transform="rotate(90 18 18)" fill="#4185F4"/>
<circle cx="18" cy="8" r="2.5" transform="rotate(90 18 8)" fill="#4185F4"/>
<circle cx="27" cy="13" r="2.5" transform="rotate(90 27 13)" fill="#4185F4"/>
<circle cx="27" cy="23" r="2.5" transform="rotate(90 27 23)" fill="#4185F4"/>
<circle cx="9" cy="13" r="2.5" transform="rotate(90 9 13)" fill="#4185F4"/>
<circle cx="9" cy="23" r="2.5" transform="rotate(90 9 23)" fill="#4185F4"/>
<path d="M7.5 13.5L10.5 13.5C9.5 18 9.5 18 10.5 22.5L7.5 22.5C8.5 18 8.5 18 7.5 13.5Z" fill="#4185F4"/>
<path d="M17.3875 16.5L17.3874 19.5C12.8875 18.5 12.8875 18.5 8.38745 19.5L8.38742 16.5C12.8875 17.5 12.8875 17.5 17.3875 16.5Z" fill="#4185F4"/>
<path d="M27.5 16.5L27.5 19.5C23 18.5 23 18.5 18.5 19.5L18.5 16.5C23 17.5 23 17.5 27.5 16.5Z" fill="#4185F4"/>
<path d="M25.5 13.5L28.5 13.5C27.5 18 27.5 18 28.5 22.5L25.5 22.5C26.5 18 26.5 18 25.5 13.5Z" fill="#4185F4"/>
<path d="M18.1125 25.9716L19.6126 28.5696C23.0097 25.4536 23.0097 25.4536 27.4068 24.0696L25.9068 21.4715C22.5097 24.5876 22.5097 24.5876 18.1125 25.9716Z" fill="#4185F4"/>
<path d="M17.6817 9.83551L16.1817 7.23745C12.7846 10.3535 12.7846 10.3535 8.38747 11.7374L9.88745 14.3355C13.2846 11.2195 13.2846 11.2195 17.6817 9.83551Z" fill="#4185F4"/>
</svg>
