<svg width="36" height="36" viewBox="0 0 36 36" fill="none" xmlns="http://www.w3.org/2000/svg">
<circle cx="18" cy="28" r="2.5" transform="rotate(90 18 28)" fill="#4185F4"/>
<circle cx="32.5" cy="18" r="2" transform="rotate(90 32.5 18)" fill="#4185F4"/>
<circle cx="3.5" cy="18" r="2" transform="rotate(90 3.5 18)" fill="#4185F4"/>
<circle cx="10.5" cy="32.5" r="2" transform="rotate(90 10.5 32.5)" fill="#4185F4"/>
<circle cx="10.5" cy="3.5" r="2" transform="rotate(90 10.5 3.5)" fill="#4185F4"/>
<circle cx="25.5" cy="32.5" r="2" transform="rotate(90 25.5 32.5)" fill="#4185F4"/>
<circle cx="25.5" cy="3.5" r="2" transform="rotate(90 25.5 3.5)" fill="#4185F4"/>
<circle cx="18" cy="18" r="2.5" transform="rotate(90 18 18)" fill="#4185F4"/>
<circle cx="18" cy="8" r="2.5" transform="rotate(90 18 8)" fill="#4185F4"/>
<circle cx="27" cy="13" r="2.5" transform="rotate(90 27 13)" fill="#4185F4"/>
<circle cx="27" cy="23" r="2.5" transform="rotate(90 27 23)" fill="#4185F4"/>
<circle cx="9" cy="13" r="2.5" transform="rotate(90 9 13)" fill="#4185F4"/>
<circle cx="9" cy="23" r="2.5" transform="rotate(90 9 23)" fill="#4185F4"/>
<path d="M16.6107 19.0981L18.1106 16.5C13.7135 15.116 13.7135 15.116 10.3164 12L8.81641 14.5981C13.2135 15.9821 13.2135 15.9821 16.6107 19.0981Z" fill="#4185F4"/>
<path d="M10.3164 14L8.81643 11.4019C13.2135 10.0179 13.2135 10.0179 16.6106 6.90192L18.1107 9.49999C13.7135 10.884 13.7135 10.884 10.3164 14Z" fill="#4185F4"/>
<path d="M19.2057 29.0981L17.7058 26.5C22.1029 25.116 22.1029 25.116 25.5 22L27 24.5981C22.6029 25.9821 22.6029 25.9821 19.2057 29.0981Z" fill="#4185F4"/>
<path d="M17.8887 19.549L19.3887 16.9509C22.7858 20.067 22.7858 20.067 27.1829 21.4509L25.6829 24.049C22.2858 20.933 22.2858 20.933 17.8887 19.549Z" fill="#4185F4"/>
<path d="M25.5 14L27 11.4019C22.6029 10.0179 22.6029 10.0179 19.2058 6.90192L17.7057 9.49999C22.1029 10.884 22.1029 10.884 25.5 14Z" fill="#4185F4"/>
<path d="M16.6471 29.0491L18.1471 26.451C13.75 25.067 13.75 25.067 10.3529 21.951L8.85284 24.5491C13.25 25.933 13.25 25.933 16.6471 29.0491Z" fill="#4185F4"/>
</svg>
