<svg width="36" height="36" viewBox="0 0 36 36" fill="none" xmlns="http://www.w3.org/2000/svg">
<circle cx="18" cy="28" r="2.5" transform="rotate(90 18 28)" fill="#4185F4"/>
<circle cx="32.5" cy="18" r="2" transform="rotate(90 32.5 18)" fill="#4185F4"/>
<circle cx="3.5" cy="18" r="2" transform="rotate(90 3.5 18)" fill="#4185F4"/>
<circle cx="10.5" cy="32.5" r="2" transform="rotate(90 10.5 32.5)" fill="#4185F4"/>
<circle cx="10.5" cy="3.5" r="2" transform="rotate(90 10.5 3.5)" fill="#4185F4"/>
<circle cx="25.5" cy="32.5" r="2" transform="rotate(90 25.5 32.5)" fill="#4185F4"/>
<circle cx="25.5" cy="3.5" r="2" transform="rotate(90 25.5 3.5)" fill="#4185F4"/>
<circle cx="18" cy="18" r="2.5" transform="rotate(90 18 18)" fill="#4185F4"/>
<circle cx="18" cy="8" r="2.5" transform="rotate(90 18 8)" fill="#4185F4"/>
<circle cx="27" cy="13" r="2.5" transform="rotate(90 27 13)" fill="#4185F4"/>
<circle cx="27" cy="23" r="2.5" transform="rotate(90 27 23)" fill="#4185F4"/>
<circle cx="9" cy="13" r="2.5" transform="rotate(90 9 13)" fill="#4185F4"/>
<circle cx="9" cy="23" r="2.5" transform="rotate(90 9 23)" fill="#4185F4"/>
<path d="M10.3164 14L8.81643 11.4019C13.2135 10.0179 13.2135 10.0179 16.6106 6.90192L18.1107 9.49999C13.7135 10.884 13.7135 10.884 10.3164 14Z" fill="#4185F4"/>
<path d="M16.5 8.5L19.5 8.50003C18.5 13 18.5 13 19.5 17.5L16.5 17.5C17.5 13 17.5 13 16.5 8.5Z" fill="#4185F4"/>
<path d="M16.5 18.5L19.5 18.5C18.5 23 18.5 23 19.5 27.5L16.5 27.5C17.5 23 17.5 23 16.5 18.5Z" fill="#4185F4"/>
<path d="M25.5 14L27 11.4019C22.6029 10.0179 22.6029 10.0179 19.2058 6.90192L17.7057 9.49999C22.1029 10.884 22.1029 10.884 25.5 14Z" fill="#4185F4"/>
</svg>
