<svg width="64" height="64" viewBox="0 0 64 64" fill="none" xmlns="http://www.w3.org/2000/svg">
<ellipse cx="32.0004" cy="51.1302" rx="4.78259" ry="4.78254" transform="rotate(90 32.0004 51.1302)" fill="#4185F4"/>
<ellipse cx="32.0004" cy="32.0013" rx="4.78259" ry="4.78254" transform="rotate(90 32.0004 32.0013)" fill="#4185F4"/>
<ellipse cx="32.0004" cy="12.8695" rx="4.78259" ry="4.78254" transform="rotate(90 32.0004 12.8695)" fill="#4185F4"/>
<ellipse cx="49.2172" cy="22.434" rx="4.78259" ry="4.78254" transform="rotate(90 49.2172 22.434)" fill="#4185F4"/>
<ellipse cx="49.2172" cy="41.5658" rx="4.78259" ry="4.78254" transform="rotate(90 49.2172 41.5658)" fill="#4185F4"/>
<ellipse cx="14.7831" cy="22.434" rx="4.78259" ry="4.78254" transform="rotate(90 14.7831 22.434)" fill="#4185F4"/>
<ellipse cx="14.7831" cy="41.5658" rx="4.78259" ry="4.78254" transform="rotate(90 14.7831 41.5658)" fill="#4185F4"/>
<path d="M29.3423 53.043L32.2118 48.0727C23.8001 45.4252 23.8001 45.4252 17.3013 39.4641L14.4318 44.4343C22.8436 47.0819 22.8436 47.0819 29.3423 53.043Z" fill="#4185F4"/>
<path d="M17.3015 24.3477L14.432 19.3774C22.8437 16.7298 22.8437 16.7298 29.3425 10.7688L32.212 15.739C23.8002 18.3866 23.8002 18.3866 17.3015 24.3477Z" fill="#4185F4"/>
<path d="M34.6567 53.2295L31.7873 48.2593C40.199 45.6117 40.199 45.6117 46.6977 39.6506L49.5673 44.6208C41.1555 47.2684 41.1555 47.2684 34.6567 53.2295Z" fill="#4185F4"/>
<path d="M46.3479 24.3477L49.2174 19.3774C40.8057 16.7298 40.8057 16.7298 34.3069 10.7688L31.4374 15.739C39.8492 18.3866 39.8492 18.3866 46.3479 24.3477Z" fill="#4185F4"/>
<path d="M46.3479 40.6084L52.0869 40.6083C50.1739 31.9997 50.1739 31.9997 52.0869 23.3911L46.3479 23.391C48.2609 31.9997 48.2609 31.9997 46.3479 40.6084Z" fill="#4185F4"/>
<path d="M29.1306 51.1309L34.8697 51.1308C32.9566 42.5222 32.9566 42.5222 34.8697 33.9135L29.1306 33.9135C31.0436 42.5222 31.0436 42.5222 29.1306 51.1309Z" fill="#4185F4"/>
<path d="M11.9138 40.6084L17.6529 40.6083C15.7398 31.9997 15.7398 31.9997 17.6529 23.3911L11.9138 23.391C13.8268 31.9997 13.8268 31.9997 11.9138 40.6084Z" fill="#4185F4"/>
<path d="M31.5723 29.1309L34.4418 34.101C40.9405 28.14 40.9405 28.14 49.3523 25.4924L46.4828 20.5222C39.984 26.4833 39.984 26.4833 31.5723 29.1309Z" fill="#4185F4"/>
<path d="M32.5632 29.1309L29.6937 34.101C23.195 28.14 23.195 28.14 14.7832 25.4924L17.6527 20.5222C24.1515 26.4833 24.1515 26.4833 32.5632 29.1309Z" fill="#4185F4"/>
</svg>
