<svg width="64" height="64" viewBox="0 0 64 64" fill="none" xmlns="http://www.w3.org/2000/svg">
<ellipse cx="32" cy="52" rx="5" ry="5.00004" transform="rotate(90 32 52)" fill="#4185F4"/>
<ellipse cx="32" cy="32.001" rx="5" ry="5.00004" transform="rotate(90 32 32.001)" fill="#4185F4"/>
<ellipse cx="32" cy="12" rx="5" ry="5.00004" transform="rotate(90 32 12)" fill="#4185F4"/>
<ellipse cx="50.0009" cy="22" rx="5" ry="5.00004" transform="rotate(90 50.0009 22)" fill="#4185F4"/>
<ellipse cx="50.0009" cy="42" rx="5" ry="5.00004" transform="rotate(90 50.0009 42)" fill="#4185F4"/>
<ellipse cx="14.0009" cy="22" rx="5" ry="5.00004" transform="rotate(90 14.0009 22)" fill="#4185F4"/>
<ellipse cx="14.0009" cy="42" rx="5" ry="5.00004" transform="rotate(90 14.0009 42)" fill="#4185F4"/>
<path d="M30.001 30.0009L34.001 30.001C32.001 22.001 33.001 20.001 36.001 15.001H28.001C31.001 20.001 32.001 22.001 30.001 30.0009Z" fill="#4185F4"/>
<path d="M30.001 34.001L34.001 34.001C32.001 42.001 33.001 44.001 36.001 49.001H28.001C31.001 44.001 32.001 42.001 30.001 34.001Z" fill="#4185F4"/>
<path d="M33.4112 34.7477L35.4112 31.2836C41.3394 37.0156 43.5533 37.1479 49.3834 37.0498L45.4223 43.994C42.5922 38.8959 41.3394 37.0156 33.4112 34.7477Z" fill="#4185F4"/>
<path d="M30.4654 29.2805L28.4654 32.7447C22.5372 27.0126 20.2915 26.8785 14.4613 26.9766L18.5786 20.015C21.4087 25.1131 22.5372 27.0126 30.4654 29.2805Z" fill="#4185F4"/>
<path d="M30.5771 34.7477L28.5771 31.2836C22.6489 37.0156 20.435 37.1479 14.6049 37.0498L18.566 43.994C21.3961 38.8959 22.6489 37.0156 30.5771 34.7477Z" fill="#4185F4"/>
<path d="M33.5229 29.2805L35.5229 32.7447C41.4511 27.0126 43.6968 26.8785 49.527 26.9766L45.4097 20.015C42.5796 25.1131 41.4511 27.0126 33.5229 29.2805Z" fill="#4185F4"/>
</svg>
