<svg width="65" height="64" viewBox="0 0 65 64" fill="none" xmlns="http://www.w3.org/2000/svg">
<path fill-rule="evenodd" clip-rule="evenodd" d="M32.8179 9.0803C32.1001 9.04529 31.3706 9.30189 30.8224 9.85011L10.6684 30.004C10.1202 30.5523 9.86362 31.2817 9.89867 31.9996H22.2993C22.2936 31.6812 22.4122 31.361 22.6551 31.1181L31.9365 21.8368C32.1794 21.5939 32.4995 21.4752 32.8179 21.481V9.0803Z" fill="#60A9ED"/>
<path fill-rule="evenodd" clip-rule="evenodd" d="M32.8179 9.0803C33.5357 9.04529 34.2651 9.30189 34.8133 9.85011L54.9673 30.004C55.5156 30.5523 55.7722 31.2817 55.737 31.9996H43.3363C43.3422 31.6812 43.2236 31.361 42.9807 31.1181L33.6993 21.8368C33.4564 21.5939 33.1362 21.4752 32.8179 21.481V9.0803Z" fill="#F06279"/>
<path fill-rule="evenodd" clip-rule="evenodd" d="M32.8179 54.9192C32.1001 54.9544 31.3706 54.6977 30.8224 54.1494L10.6684 33.9955C10.1202 33.4473 9.86362 32.7178 9.89867 32H22.2993C22.2936 32.3184 22.4122 32.6385 22.6551 32.8815L31.9365 42.1629C32.1794 42.4057 32.4995 42.5243 32.8179 42.5187V54.9192Z" fill="#F18ED5"/>
<path fill-rule="evenodd" clip-rule="evenodd" d="M32.8179 54.9192C33.5357 54.9544 34.2651 54.6977 34.8133 54.1494L54.9673 33.9955C55.5156 33.4473 55.7722 32.7178 55.737 32H43.3363C43.3422 32.3184 43.2236 32.6385 42.9807 32.8815L33.6993 42.1629C33.4564 42.4057 33.1362 42.5243 32.8179 42.5187V54.9192Z" fill="#80C9D3"/>
</svg>
