<svg width="196" height="33" viewBox="0 0 196 33" fill="none" xmlns="http://www.w3.org/2000/svg">
<circle cx="18.1623" cy="25.2178" r="2.22222" transform="rotate(90 18.1623 25.2178)" fill="#4185F4"/>
<circle cx="31.0512" cy="16.3289" r="1.77778" transform="rotate(90 31.0512 16.3289)" fill="#4185F4"/>
<circle cx="5.27343" cy="16.3289" r="1.77778" transform="rotate(90 5.27343 16.3289)" fill="#4185F4"/>
<circle cx="11.4957" cy="29.2178" r="1.77778" transform="rotate(90 11.4957 29.2178)" fill="#4185F4"/>
<circle cx="11.4957" cy="3.44001" r="1.77778" transform="rotate(90 11.4957 3.44001)" fill="#4185F4"/>
<circle cx="23.9401" cy="29.2178" r="1.77778" transform="rotate(90 23.9401 29.2178)" fill="#4185F4"/>
<circle cx="24.829" cy="3.44001" r="1.77778" transform="rotate(90 24.829 3.44001)" fill="#4185F4"/>
<circle cx="18.1623" cy="16.3289" r="2.22222" transform="rotate(90 18.1623 16.3289)" fill="#4185F4"/>
<circle cx="18.1623" cy="7.44" r="2.22222" transform="rotate(90 18.1623 7.44)" fill="#4185F4"/>
<circle cx="26.1623" cy="11.8845" r="2.22222" transform="rotate(90 26.1623 11.8845)" fill="#4185F4"/>
<circle cx="26.1623" cy="20.7733" r="2.22222" transform="rotate(90 26.1623 20.7733)" fill="#4185F4"/>
<circle cx="10.1623" cy="11.8845" r="2.22222" transform="rotate(90 10.1623 11.8845)" fill="#4185F4"/>
<circle cx="10.1623" cy="20.7733" r="2.22222" transform="rotate(90 10.1623 20.7733)" fill="#4185F4"/>
<path d="M8.82898 12.3289L11.4956 12.3289C10.6068 16.3289 10.6068 16.3289 11.4956 20.3289L8.82898 20.3289C9.71787 16.3289 9.71787 16.3289 8.82898 12.3289Z" fill="#4185F4"/>
<path d="M17.9008 8.81696L19.2342 6.50757C22.2538 9.27735 22.2538 9.27735 26.1624 10.5076L24.829 12.817C21.8094 10.0472 21.8094 10.0472 17.9008 8.81696Z" fill="#4185F4"/>
<path d="M17.9008 17.7058L19.2342 15.3964C22.2538 18.1662 22.2538 18.1662 26.1624 19.3964L24.829 21.7058C21.8094 18.936 21.8094 18.936 17.9008 17.7058Z" fill="#4185F4"/>
<path d="M17.9008 14.9519L19.2342 17.2613C22.2538 14.4915 22.2538 14.4915 26.1624 13.2613L24.829 10.9519C21.8094 13.7217 21.8094 13.7217 17.9008 14.9519Z" fill="#4185F4"/>
<path d="M17.9008 23.8408L19.2342 26.1502C22.2538 23.3804 22.2538 23.3804 26.1624 22.1502L24.829 19.8408C21.8094 22.6106 21.8094 22.6106 17.9008 23.8408Z" fill="#4185F4"/>
<path d="M18.2931 23.8408L16.9597 26.1502C13.9401 23.3804 13.9401 23.3804 10.0315 22.1502L11.3648 19.8408C14.3845 22.6106 14.3845 22.6106 18.2931 23.8408Z" fill="#4185F4"/>
<path d="M54.1612 17.8222C55.2008 18.0859 56.1215 18.7037 56.7717 19.5737C57.4062 20.4773 57.7317 21.5695 57.6976 22.6813C57.7313 23.4422 57.5871 24.2004 57.2771 24.8931C56.9671 25.5858 56.5001 26.1931 55.9148 26.6646C54.4869 27.6986 52.7574 28.2056 51.0103 28.1023H43.8792C43.6508 28.1156 43.422 28.0826 43.2061 28.005C42.9903 27.9274 42.7916 27.8068 42.6216 27.6502C42.4635 27.4816 42.3413 27.2813 42.2628 27.0619C42.1843 26.8426 42.1512 26.6089 42.1655 26.3758V9.90885C42.1521 9.67677 42.1856 9.44435 42.2641 9.22614C42.3426 9.00792 42.4643 8.80862 42.6216 8.64071C42.7916 8.48413 42.9903 8.36356 43.2061 8.28597C43.422 8.20838 43.6508 8.17532 43.8792 8.1887H50.737C52.4313 8.08854 54.1098 8.57088 55.5048 9.55886C56.0723 10.0083 56.5256 10.5908 56.8263 11.2571C57.127 11.9234 57.2662 12.6539 57.2323 13.3868C57.255 14.366 56.9692 15.3267 56.417 16.1271C55.8527 16.915 55.0653 17.5067 54.1612 17.8222ZM45.6482 16.576H50.1535C52.6042 16.576 53.8296 15.6437 53.8296 13.7792C53.8588 13.3808 53.7907 12.9812 53.6315 12.6163C53.4723 12.2514 53.227 11.9326 52.9174 11.6886C52.0866 11.1766 51.1212 10.9398 50.1535 11.0106H45.6482V16.576ZM50.6233 25.2772C51.6131 25.3594 52.6022 25.1116 53.4426 24.5709C53.7497 24.301 53.99 23.9607 54.1437 23.5777C54.2974 23.1947 54.3603 22.78 54.3271 22.3674C54.358 21.9495 54.2929 21.5301 54.1369 21.1426C53.981 20.755 53.7384 20.4102 53.4288 20.1356C52.5993 19.5793 51.6123 19.3209 50.6233 19.4011H45.6482V25.2772H50.6233ZM71.0768 14.0052C71.5422 13.9799 71.9987 14.1422 72.3482 14.4572C72.5063 14.6141 72.63 14.8035 72.711 15.0129C72.792 15.2224 72.8285 15.447 72.8181 15.672V26.6332C72.8264 26.855 72.7874 27.076 72.7039 27.2809C72.6204 27.4857 72.4943 27.6696 72.3344 27.8198C71.9877 28.1302 71.5373 28.2921 71.0768 28.2718C70.6417 28.2946 70.2151 28.1425 69.8883 27.848C69.7384 27.6981 69.6214 27.5172 69.5452 27.3175C69.4689 27.1178 69.4351 26.9038 69.4461 26.6897V25.9835C69.0443 26.7144 68.4508 27.3162 67.7324 27.7209C66.9859 28.1329 66.1484 28.3421 65.3001 28.3283C61.9833 28.3283 60.3249 26.4261 60.3249 22.6216V15.672C60.3145 15.447 60.351 15.2224 60.432 15.0129C60.513 14.8035 60.6367 14.6141 60.7948 14.4572C61.1352 14.1455 61.582 13.9831 62.0386 14.0052C62.504 13.9799 62.9605 14.1422 63.31 14.4572C63.4681 14.6141 63.5918 14.8035 63.6728 15.0129C63.7538 15.2224 63.7903 15.447 63.7799 15.672V22.6499C63.7203 23.4219 63.9255 24.191 64.3603 24.8252C64.5931 25.0752 64.8779 25.2685 65.1937 25.3908C65.5095 25.513 65.8481 25.5611 66.1846 25.5315C66.6154 25.5496 67.0449 25.4719 67.4434 25.3036C67.8419 25.1353 68.1999 24.8805 68.4925 24.5568C69.096 23.841 69.4076 22.9157 69.3631 21.9719V15.672C69.3527 15.447 69.3892 15.2224 69.4702 15.0129C69.5513 14.8035 69.6749 14.6141 69.833 14.4572C70.1735 14.1455 70.6202 13.9831 71.0768 14.0052ZM77.7933 28.2718C77.3445 28.2888 76.9059 28.1325 76.5648 27.8339C76.3991 27.6736 76.2699 27.4781 76.1863 27.2611C76.1027 27.0441 76.0668 26.811 76.0812 26.5783V15.6704C76.0656 15.4394 76.101 15.2078 76.1847 14.9927C76.2684 14.7775 76.3983 14.5844 76.5648 14.4274C76.9097 14.1371 77.3468 13.9863 77.7933 14.0036C78.2442 13.9875 78.6858 14.1379 79.0371 14.4274C79.2073 14.582 79.3406 14.7745 79.4269 14.9899C79.5131 15.2054 79.55 15.4382 79.5346 15.6704V26.5783C79.5487 26.8123 79.5113 27.0465 79.4252 27.2638C79.3391 27.481 79.2065 27.6759 79.0371 27.8339C78.6893 28.1313 78.2465 28.2872 77.7933 28.2718ZM84.4821 28.2718C84.0334 28.2888 83.5948 28.1325 83.2537 27.8339C83.0879 27.6736 82.9587 27.4781 82.8751 27.2611C82.7915 27.0441 82.7556 26.811 82.77 26.5783V9.7111C82.7545 9.48011 82.7898 9.24851 82.8736 9.03337C82.9573 8.81824 83.0872 8.62505 83.2537 8.46807C83.5985 8.17777 84.0357 8.02698 84.4821 8.04431C84.9331 8.02819 85.3746 8.17862 85.7259 8.46807C85.8961 8.62273 86.0295 8.81516 86.1157 9.03062C86.2019 9.24607 86.2388 9.47884 86.2234 9.7111V26.5767C86.2375 26.8107 86.2001 27.0449 86.114 27.2622C86.0279 27.4795 85.8953 27.6743 85.7259 27.8323C85.3784 28.1303 84.9355 28.2868 84.4821 28.2718ZM96.4778 25.6445C97.3991 25.701 97.8598 26.1247 97.8598 26.9157C97.8686 27.121 97.8234 27.325 97.7289 27.5063C97.6344 27.6877 97.494 27.8398 97.3224 27.9469C96.853 28.2062 96.3164 28.3099 95.7868 28.2435L95.0375 28.187C91.9418 27.961 90.394 26.266 90.394 23.1019V16.9433H89.012C88.6026 16.9707 88.1968 16.8508 87.8649 16.6043C87.7284 16.4819 87.6213 16.3291 87.5518 16.1576C87.4823 15.9862 87.4523 15.8007 87.4642 15.6155C87.4523 15.4303 87.4823 15.2448 87.5518 15.0733C87.6213 14.9019 87.7284 14.7491 87.8649 14.6267C88.1968 14.3802 88.6026 14.2602 89.012 14.2877H90.394V11.6886C90.3836 11.4637 90.4201 11.239 90.5011 11.0296C90.5821 10.8202 90.7057 10.6307 90.8639 10.4739C91.2134 10.1589 91.6699 9.99657 92.1353 10.0219C92.5919 9.99975 93.0386 10.1621 93.3791 10.4739C93.5372 10.6307 93.6608 10.8202 93.7419 11.0296C93.8229 11.239 93.8594 11.4637 93.849 11.6886V14.2908H96.1983C96.6077 14.2633 97.0136 14.3833 97.3454 14.6298C97.4819 14.7522 97.5891 14.905 97.6585 15.0765C97.728 15.2479 97.758 15.4334 97.7462 15.6186C97.758 15.8038 97.728 15.9893 97.6585 16.1608C97.5891 16.3322 97.4819 16.485 97.3454 16.6074C97.0136 16.8539 96.6077 16.9739 96.1983 16.9464H93.849V23.3593C93.849 24.753 94.4755 25.4969 95.7285 25.5911L96.4778 25.6445Z" fill="#344856"/>
<path d="M187.465 4.32892H183.291C183.237 4.32913 183.186 4.35085 183.149 4.38937C183.111 4.42788 183.09 4.48005 183.089 4.53452V5.27453C183.09 5.32899 183.111 5.38117 183.149 5.41968C183.186 5.4582 183.237 5.47992 183.291 5.48013H184.719V9.61492C184.72 9.66939 184.741 9.72156 184.779 9.76008C184.816 9.79859 184.867 9.82032 184.921 9.82053H185.833C185.886 9.82032 185.937 9.79859 185.975 9.76008C186.012 9.72156 186.034 9.66939 186.034 9.61492V5.48013H187.463C187.516 5.47992 187.567 5.4582 187.605 5.41968C187.642 5.38117 187.664 5.32899 187.664 5.27453V4.53452C187.665 4.48171 187.646 4.43045 187.611 4.39193C187.576 4.35341 187.527 4.33076 187.475 4.32892H187.465ZM193.838 9.59844L193.435 4.51883C193.431 4.46734 193.408 4.41938 193.371 4.38448C193.333 4.34958 193.285 4.33031 193.234 4.33049H192.135C192.093 4.33073 192.053 4.34414 192.019 4.36887C191.985 4.39361 191.959 4.42845 191.946 4.4686L191.212 6.65018C191.09 7.00331 190.941 7.55577 190.941 7.55577H190.926C190.926 7.55577 190.777 7.00645 190.655 6.65018L189.921 4.4686C189.907 4.42864 189.882 4.39398 189.848 4.3693C189.814 4.34461 189.774 4.33107 189.732 4.33049H188.634C188.584 4.33102 188.536 4.35053 188.498 4.38529C188.461 4.42006 188.438 4.46761 188.433 4.51883L188.023 9.59844C188.021 9.6254 188.024 9.65254 188.032 9.6783C188.04 9.70406 188.053 9.72794 188.07 9.74857C188.087 9.7692 188.108 9.78618 188.132 9.79852C188.155 9.81087 188.181 9.81835 188.207 9.82053H189.141C189.192 9.8201 189.241 9.8002 189.278 9.76476C189.315 9.72931 189.338 9.68089 189.342 9.62905L189.496 7.34781C189.513 7.0407 189.513 6.73285 189.496 6.42574H189.511C189.511 6.42574 189.691 7.00174 189.812 7.34781L190.326 8.80193C190.34 8.84152 190.366 8.87573 190.399 8.89999C190.433 8.92425 190.473 8.9374 190.515 8.93769H191.354C191.395 8.93751 191.435 8.9244 191.469 8.90013C191.503 8.87586 191.529 8.84158 191.543 8.80193L192.058 7.34781C192.179 7.00253 192.359 6.42574 192.359 6.42574H192.369C192.352 6.73285 192.352 7.0407 192.369 7.34781L192.522 9.62905C192.526 9.68103 192.549 9.72966 192.586 9.76517C192.623 9.80069 192.673 9.82046 192.723 9.82053H193.628C193.655 9.82115 193.681 9.81639 193.706 9.80651C193.731 9.79664 193.754 9.78184 193.773 9.76296C193.792 9.74409 193.808 9.72151 193.819 9.69651C193.83 9.67151 193.835 9.64459 193.836 9.61728C193.836 9.61101 193.836 9.60471 193.836 9.59844H193.838Z" fill="#4185F4"/>
<path d="M78.7706 9.80881C78.8836 9.81967 78.9931 9.85478 79.0919 9.91185C79.1907 9.96891 79.2767 10.0466 79.3441 10.14C79.7695 10.581 80.1887 11.0283 80.634 11.4481C80.8873 11.6836 80.6931 11.8005 80.5495 11.93C80.4059 12.0594 80.3138 12.3388 80.0489 12.0516C79.5883 11.5517 79.1038 11.0722 78.6224 10.592C78.5251 10.4635 78.4519 10.3177 78.4067 10.1619C76.8281 10.8965 75.7602 10.7058 74.987 9.54828C74.6955 9.09635 74.5691 8.55395 74.6299 8.01625C74.6907 7.47856 74.9348 6.97992 75.3195 6.60786C75.6911 6.21012 76.1901 5.96213 76.7257 5.90912C77.2613 5.85611 77.7976 6.0016 78.237 6.31907C79.3257 7.09596 79.4969 8.18361 78.7706 9.80881ZM78.455 8.30839C78.4609 8.00241 78.3778 7.70153 78.2163 7.44386C78.0547 7.18619 77.822 6.98332 77.5475 6.86097C77.2731 6.73861 76.9693 6.70226 76.6746 6.75653C76.3799 6.81079 76.1076 6.95324 75.8922 7.16581C75.6768 7.37838 75.528 7.65151 75.4646 7.95061C75.4012 8.24971 75.4261 8.56131 75.5361 8.84594C75.6461 9.13058 75.8363 9.37544 76.0826 9.5495C76.3288 9.72356 76.6201 9.819 76.9195 9.82372C77.3196 9.83044 77.706 9.67467 77.9938 9.39059C78.2817 9.10651 78.4476 8.71731 78.455 8.30839Z" fill="#4185F4"/>
<path d="M108.593 28.0972C107.232 28.1057 105.877 27.9105 104.572 27.5181C103.454 27.2061 102.407 26.6729 101.49 25.9486C101.283 25.7941 101.116 25.5895 101.005 25.3531C100.894 25.1168 100.842 24.856 100.854 24.5942C100.847 24.2196 100.969 23.8545 101.2 23.563C101.293 23.4299 101.415 23.321 101.556 23.2449C101.698 23.1689 101.855 23.1279 102.015 23.1251C102.42 23.1488 102.812 23.2844 103.148 23.5175C103.901 24.0814 104.742 24.5112 105.636 24.7888C106.57 25.061 107.539 25.1932 108.51 25.1812C109.588 25.2501 110.662 25.0029 111.606 24.4686C111.952 24.2466 112.233 23.9347 112.422 23.5649C112.611 23.1951 112.7 22.7806 112.681 22.3639C112.685 22.0189 112.592 21.6798 112.414 21.3867C112.236 21.0936 111.98 20.8587 111.675 20.7097C110.609 20.1875 109.48 19.8123 108.317 19.5938C106.961 19.3199 105.636 18.9023 104.364 18.3476C103.458 17.9627 102.666 17.3401 102.07 16.5427C101.528 15.7181 101.257 14.7385 101.296 13.7459C101.282 12.6208 101.621 11.5207 102.264 10.607C102.952 9.64869 103.884 8.9013 104.959 8.44579C106.186 7.91241 107.509 7.64776 108.842 7.6689C111.172 7.56474 113.46 8.32755 115.282 9.81595C115.489 9.98333 115.662 10.1895 115.793 10.4233C115.903 10.6566 115.956 10.9134 115.947 11.172C115.954 11.5465 115.832 11.9116 115.601 12.2031C115.508 12.3362 115.386 12.4451 115.245 12.5211C115.103 12.5972 114.946 12.6382 114.786 12.641C114.612 12.6427 114.439 12.6141 114.275 12.5563C114.059 12.4698 113.851 12.3648 113.653 12.2424C112.979 11.7244 112.24 11.302 111.455 10.9868C110.616 10.6924 109.732 10.5536 108.845 10.5771C107.8 10.5199 106.763 10.791 105.874 11.354C105.526 11.5886 105.243 11.9105 105.052 12.2889C104.861 12.6674 104.768 13.0896 104.782 13.5152C104.771 13.8735 104.855 14.2283 105.025 14.5417C105.196 14.8551 105.446 15.1154 105.749 15.295C106.781 15.8534 107.89 16.2457 109.039 16.458C110.405 16.7469 111.742 17.1673 113.031 17.7136C113.946 18.0928 114.753 18.6998 115.38 19.4792C115.942 20.2533 116.23 21.1998 116.196 22.163C116.214 23.2725 115.879 24.358 115.242 25.2565C114.554 26.1932 113.625 26.9172 112.56 27.3486C111.3 27.8686 109.951 28.1232 108.593 28.0972ZM129.6 24.0574C129.746 24.0534 129.89 24.0845 130.022 24.1483C130.154 24.2121 130.27 24.3068 130.36 24.4247C130.566 24.7099 130.668 25.0594 130.65 25.4134C130.63 25.7313 130.524 26.0371 130.343 26.2966C130.162 26.5561 129.914 26.759 129.627 26.8825C128.955 27.2593 128.241 27.5492 127.499 27.7457C126.761 27.9547 125.999 28.0639 125.232 28.0706C124.289 28.1209 123.345 27.9766 122.457 27.6463C121.569 27.316 120.755 26.8064 120.064 26.148C119.411 25.4518 118.904 24.6259 118.576 23.7215C118.248 22.817 118.105 21.8534 118.157 20.8902C118.132 19.5877 118.416 18.2984 118.986 17.1329C119.509 16.0732 120.32 15.1903 121.321 14.5903C122.358 13.9788 123.538 13.6664 124.735 13.6863C125.848 13.6591 126.946 13.9424 127.913 14.5056C128.819 15.0546 129.548 15.8604 130.014 16.8252C130.534 17.9251 130.789 19.1356 130.76 20.3566C130.76 21.1664 130.41 21.5714 129.71 21.5714H121.553C121.567 22.6273 121.948 23.6438 122.628 24.4388C122.989 24.764 123.409 25.0126 123.865 25.1702C124.32 25.3278 124.802 25.3913 125.282 25.3569C125.813 25.3668 126.343 25.2905 126.851 25.1309C127.373 24.952 127.886 24.7445 128.386 24.5094C128.755 24.272 129.168 24.1179 129.6 24.0574ZM124.818 16.1755C124.401 16.1558 123.985 16.2262 123.597 16.382C123.209 16.5377 122.857 16.7754 122.565 17.0795C121.951 17.8059 121.595 18.7227 121.553 19.6817H127.803C127.835 18.7382 127.541 17.8134 126.974 17.0685C126.701 16.7668 126.366 16.5304 125.993 16.376C125.621 16.2217 125.219 16.1532 124.818 16.1755ZM139.163 13.6894C141.042 13.6894 142.438 14.165 143.35 15.1161C144.262 16.0672 144.718 17.5127 144.718 19.4526V26.3457C144.731 26.566 144.698 26.7865 144.622 26.9931C144.547 27.1998 144.43 27.3882 144.279 27.5464C144.115 27.6983 143.922 27.8152 143.713 27.8904C143.503 27.9655 143.282 27.9974 143.06 27.9842C142.844 27.9923 142.629 27.9562 142.428 27.878C142.226 27.7999 142.042 27.6812 141.885 27.5291C141.733 27.3746 141.613 27.1893 141.535 26.985C141.456 26.7807 141.42 26.5619 141.429 26.3426V25.7242C141.129 26.4457 140.611 27.0505 139.951 27.4506C139.243 27.8734 138.435 28.0874 137.615 28.069C136.764 28.0803 135.922 27.8867 135.158 27.504C134.452 27.1549 133.851 26.6183 133.417 25.9502C132.994 25.2973 132.771 24.5299 132.778 23.7466C132.73 22.8773 133.001 22.0209 133.538 21.3453C134.214 20.6702 135.079 20.226 136.012 20.0741C137.57 19.7737 139.154 19.6422 140.738 19.6817H141.429V19.0319C141.491 18.308 141.284 17.5869 140.849 17.012C140.595 16.7793 140.298 16.6027 139.974 16.4933C139.651 16.3839 139.309 16.3441 138.969 16.3764C138.418 16.3789 137.869 16.4597 137.339 16.6165C136.786 16.7766 136.132 17.0073 135.376 17.3086C135.054 17.5024 134.697 17.6273 134.326 17.6759C134.172 17.6803 134.019 17.6496 133.878 17.5861C133.737 17.5226 133.611 17.4278 133.511 17.3086C133.291 17.0405 133.177 16.6977 133.193 16.3481C133.186 16.0523 133.268 15.7614 133.428 15.5147C133.636 15.2341 133.906 15.0068 134.215 14.8508C134.944 14.4609 135.721 14.1747 136.525 14.0002C137.39 13.7964 138.275 13.6922 139.163 13.6894ZM138.306 25.5264C138.726 25.5416 139.144 25.465 139.532 25.3017C139.921 25.1385 140.271 24.8925 140.559 24.58C141.152 23.9143 141.465 23.0363 141.429 22.1364V21.5431H140.932C139.971 21.5255 139.01 21.5821 138.057 21.7126C137.523 21.7624 137.015 21.9684 136.592 22.3059C136.442 22.4558 136.326 22.6366 136.249 22.8363C136.173 23.0361 136.139 23.2501 136.15 23.4641C136.142 23.7427 136.194 24.0197 136.301 24.2759C136.408 24.532 136.569 24.7612 136.772 24.9473C137.191 25.3352 137.741 25.5427 138.306 25.5264ZM155.498 13.7459C155.698 13.7169 155.901 13.7298 156.096 13.7838C156.291 13.8378 156.473 13.9317 156.631 14.0598C156.775 14.2003 156.887 14.3717 156.959 14.5617C157.031 14.7516 157.06 14.9554 157.046 15.1585C157.062 15.3618 157.039 15.5663 156.977 15.7603C156.916 15.9543 156.817 16.1339 156.687 16.2885C156.315 16.5865 155.86 16.7548 155.387 16.7687L154.558 16.8566C154.106 16.8706 153.661 16.9779 153.25 17.1721C152.839 17.3663 152.471 17.6434 152.167 17.9867C151.646 18.6711 151.377 19.5212 151.407 20.388V26.3206C151.421 26.5546 151.384 26.7888 151.298 27.0061C151.212 27.2234 151.079 27.4182 150.91 27.5762C150.562 27.8736 150.119 28.0295 149.666 28.0141C149.217 28.0311 148.779 27.8748 148.438 27.5762C148.272 27.4159 148.143 27.2204 148.059 27.0034C147.975 26.7864 147.94 26.5533 147.954 26.3206V15.3845C147.94 15.1579 147.976 14.931 148.06 14.7207C148.144 14.5104 148.273 14.3221 148.438 14.1697C148.774 13.8822 149.202 13.7313 149.64 13.7459C150.064 13.726 150.479 13.8726 150.801 14.1556C150.953 14.3067 151.071 14.4898 151.148 14.6922C151.224 14.8946 151.257 15.1115 151.243 15.328V16.458C151.559 15.6704 152.103 15.0002 152.802 14.5369C153.494 14.0844 154.289 13.8217 155.11 13.7742L155.498 13.7459ZM163.983 28.069C162.745 28.0958 161.522 27.7941 160.432 27.1932C159.42 26.6208 158.598 25.7545 158.069 24.704C157.495 23.5399 157.21 22.2497 157.239 20.9467C157.214 19.6256 157.513 18.3191 158.11 17.147C158.667 16.0719 159.516 15.1848 160.556 14.5934C161.666 13.9756 162.914 13.664 164.177 13.6894C164.911 13.6926 165.641 13.7982 166.347 14.0033C167.024 14.1883 167.67 14.4738 168.266 14.8508C168.53 14.9983 168.75 15.2139 168.906 15.4762C169.062 15.7385 169.148 16.0381 169.155 16.345C169.172 16.7032 169.07 17.0567 168.865 17.3479C168.777 17.4689 168.663 17.5667 168.53 17.6331C168.398 17.6995 168.252 17.7324 168.105 17.7293C167.886 17.7257 167.67 17.6777 167.469 17.588C167.241 17.4902 167.019 17.377 166.806 17.249C166.436 17.0219 166.048 16.8281 165.645 16.6699C165.237 16.5219 164.806 16.4501 164.373 16.458C163.877 16.4278 163.379 16.5154 162.921 16.7138C162.463 16.9123 162.055 17.2163 161.731 17.6021C161.056 18.5551 160.728 19.7194 160.805 20.8933C160.731 22.0577 161.059 23.2116 161.731 24.1547C162.055 24.5404 162.462 24.8444 162.919 25.0432C163.377 25.2419 163.874 25.3299 164.37 25.3004C164.789 25.3076 165.206 25.2357 165.599 25.0886C166.011 24.9219 166.413 24.7284 166.801 24.5094C167.031 24.3643 167.271 24.2368 167.52 24.128C167.712 24.0454 167.919 24.0022 168.128 24.0009C168.274 24.0012 168.418 24.037 168.547 24.1052C168.677 24.1734 168.789 24.2721 168.874 24.3933C169.085 24.6771 169.193 25.0262 169.181 25.382C169.188 25.674 169.117 25.9624 168.974 26.2154C168.804 26.4817 168.571 26.7002 168.297 26.8511C167.681 27.2492 167.009 27.5502 166.305 27.7441C165.55 27.9607 164.768 28.0701 163.983 28.069ZM179.102 13.6894C182.272 13.6894 183.856 15.5822 183.856 19.3678V26.3175C183.869 26.5456 183.835 26.774 183.756 26.988C183.678 27.202 183.557 27.3969 183.4 27.5605C183.23 27.7171 183.032 27.8376 182.816 27.9152C182.6 27.9928 182.371 28.0259 182.143 28.0125C181.677 28.0378 181.221 27.8755 180.871 27.5605C180.712 27.399 180.587 27.2048 180.506 26.9905C180.425 26.7762 180.389 26.5468 180.401 26.3175V19.3678C180.466 18.5888 180.255 17.8121 179.807 17.1784C179.564 16.9313 179.271 16.7413 178.949 16.6218C178.627 16.5023 178.283 16.456 177.942 16.4862C177.499 16.4659 177.058 16.5409 176.646 16.7064C176.234 16.8719 175.861 17.1241 175.551 17.4468C175.243 17.7939 175.005 18.1997 174.851 18.6408C174.697 19.0819 174.63 19.5497 174.652 20.0176V26.3175C174.665 26.5468 174.629 26.7762 174.548 26.9905C174.467 27.2048 174.342 27.399 174.183 27.5605C173.833 27.8755 173.376 28.0378 172.911 28.0125C172.683 28.0259 172.454 27.9928 172.238 27.9152C172.022 27.8376 171.823 27.7171 171.653 27.5605C171.497 27.3969 171.376 27.202 171.298 26.988C171.219 26.774 171.185 26.5456 171.197 26.3175V9.42358C171.189 9.2018 171.228 8.98082 171.312 8.77595C171.395 8.57108 171.521 8.3872 171.681 8.23705C172.028 7.92661 172.478 7.76472 172.939 7.78504C173.391 7.76258 173.834 7.91375 174.183 8.2088C174.34 8.3543 174.464 8.53367 174.545 8.73397C174.626 8.93427 174.663 9.1505 174.652 9.36708V15.9495C175.101 15.2254 175.737 14.6429 176.49 14.267C177.306 13.87 178.2 13.6723 179.102 13.6894Z" fill="#4185F4"/>
</svg>
