<svg width="134" height="21" viewBox="0 0 134 21" fill="none" xmlns="http://www.w3.org/2000/svg">
<path d="M10.6007 11.7166C11.5191 11.9497 12.3325 12.4954 12.9069 13.264C13.4675 14.0624 13.755 15.0273 13.7249 16.0095C13.7547 16.6817 13.6273 17.3516 13.3534 17.9636C13.0795 18.5755 12.667 19.112 12.1499 19.5286C10.8884 20.4421 9.36039 20.89 7.81691 20.7987H1.51685C1.31502 20.8106 1.1129 20.7813 0.922187 20.7128C0.731475 20.6443 0.555957 20.5377 0.405789 20.3994C0.266103 20.2504 0.158174 20.0734 0.0888229 19.8796C0.0194718 19.6858 -0.00979303 19.4794 0.00287775 19.2735V4.72547C-0.009032 4.52044 0.0206064 4.3151 0.0899368 4.12232C0.159267 3.92953 0.266796 3.75346 0.405789 3.60512C0.555957 3.46678 0.731475 3.36025 0.922187 3.29171C1.1129 3.22316 1.31502 3.19396 1.51685 3.20578H7.57544C9.07237 3.11729 10.5552 3.54342 11.7877 4.41627C12.289 4.81331 12.6895 5.32792 12.9551 5.91657C13.2208 6.50523 13.3438 7.15061 13.3139 7.79814C13.3339 8.6632 13.0814 9.51195 12.5935 10.2191C12.095 10.9152 11.3993 11.4379 10.6007 11.7166ZM3.07965 10.6157H7.05993C9.22507 10.6157 10.3076 9.79204 10.3076 8.14478C10.3335 7.7928 10.2734 7.43978 10.1327 7.11741C9.99205 6.79504 9.77527 6.51343 9.50181 6.29786C8.76779 5.84552 7.91486 5.63629 7.05993 5.69885H3.07965V10.6157ZM7.47505 18.3029C8.34945 18.3755 9.22332 18.1566 9.96577 17.6789C10.2371 17.4405 10.4494 17.1398 10.5852 16.8014C10.721 16.4631 10.7765 16.0967 10.7472 15.7322C10.7745 15.363 10.717 14.9924 10.5792 14.6501C10.4414 14.3077 10.2271 14.0031 9.95356 13.7604C9.22076 13.269 8.34879 13.0407 7.47505 13.1115H3.07965V18.3029H7.47505ZM25.545 8.34445C25.9561 8.32211 26.3594 8.46549 26.6683 8.74379C26.808 8.88237 26.9172 9.04973 26.9888 9.23476C27.0603 9.41979 27.0926 9.61826 27.0834 9.817V19.5009C27.0907 19.6968 27.0563 19.8921 26.9825 20.0731C26.9087 20.254 26.7973 20.4165 26.6561 20.5492C26.3498 20.8234 25.9518 20.9664 25.545 20.9485C25.1606 20.9687 24.7837 20.8343 24.495 20.5741C24.3626 20.4416 24.2592 20.2819 24.1919 20.1054C24.1245 19.929 24.0946 19.7399 24.1043 19.5508V18.9268C23.7494 19.5726 23.225 20.1043 22.5903 20.4618C21.9308 20.8258 21.1909 21.0106 20.4415 20.9984C17.5112 20.9984 16.0461 19.3179 16.0461 15.9568V9.817C16.0369 9.61826 16.0691 9.41979 16.1407 9.23476C16.2123 9.04973 16.3215 8.88237 16.4612 8.74379C16.762 8.46836 17.1567 8.32492 17.56 8.34445C17.9712 8.32211 18.3745 8.46549 18.6833 8.74379C18.823 8.88237 18.9322 9.04973 19.0038 9.23476C19.0754 9.41979 19.1076 9.61826 19.0984 9.817V15.9817C19.0458 16.6638 19.2271 17.3433 19.6112 17.9036C19.8169 18.1244 20.0685 18.2952 20.3475 18.4032C20.6265 18.5112 20.9256 18.5537 21.2229 18.5275C21.6035 18.5436 21.983 18.4749 22.335 18.3262C22.6871 18.1775 23.0033 17.9524 23.2618 17.6664C23.795 17.034 24.0703 16.2166 24.031 15.3827V9.817C24.0218 9.61826 24.0541 9.41979 24.1257 9.23476C24.1972 9.04973 24.3065 8.88237 24.4462 8.74379C24.7469 8.46836 25.1416 8.32492 25.545 8.34445ZM31.4788 20.9485C31.0823 20.9635 30.6948 20.8254 30.3935 20.5616C30.2471 20.4201 30.1329 20.2473 30.059 20.0556C29.9852 19.8639 29.9535 19.658 29.9662 19.4524V9.81562C29.9524 9.61155 29.9837 9.40694 30.0577 9.21687C30.1316 9.0268 30.2464 8.85613 30.3935 8.71744C30.6982 8.46097 31.0844 8.32775 31.4788 8.34307C31.8772 8.32882 32.2673 8.46172 32.5776 8.71744C32.728 8.85408 32.8458 9.02409 32.922 9.21443C32.9982 9.40478 33.0307 9.61042 33.0172 9.81562V19.4524C33.0296 19.6591 32.9966 19.866 32.9205 20.058C32.8445 20.2499 32.7273 20.422 32.5776 20.5616C32.2704 20.8244 31.8792 20.9621 31.4788 20.9485ZM37.3881 20.9485C36.9917 20.9635 36.6042 20.8254 36.3029 20.5616C36.1564 20.4201 36.0423 20.2473 35.9684 20.0556C35.8946 19.8639 35.8629 19.658 35.8755 19.4524V4.55076C35.8618 4.3467 35.8931 4.14208 35.967 3.95202C36.041 3.76195 36.1558 3.59128 36.3029 3.45259C36.6075 3.19612 36.9937 3.0629 37.3881 3.07821C37.7865 3.06397 38.1766 3.19687 38.487 3.45259C38.6374 3.58923 38.7552 3.75923 38.8314 3.94958C38.9075 4.13993 38.9401 4.34557 38.9265 4.55076V19.451C38.939 19.6577 38.9059 19.8646 38.8299 20.0566C38.7538 20.2485 38.6367 20.4206 38.487 20.5602C38.18 20.8235 37.7887 20.9617 37.3881 20.9485ZM47.9859 18.6273C48.7999 18.6773 49.2069 19.0516 49.2069 19.7505C49.2147 19.9318 49.1747 20.112 49.0912 20.2723C49.0077 20.4325 48.8837 20.5669 48.7321 20.6615C48.3174 20.8906 47.8433 20.9821 47.3755 20.9235L46.7134 20.8736C43.9785 20.6739 42.6111 19.1764 42.6111 16.3811V10.9401H41.3901C41.0285 10.9644 40.6699 10.8585 40.3767 10.6406C40.2561 10.5325 40.1615 10.3975 40.1001 10.246C40.0387 10.0946 40.0122 9.93069 40.0227 9.76709C40.0122 9.60348 40.0387 9.4396 40.1001 9.28813C40.1615 9.13665 40.2561 9.00164 40.3767 8.89354C40.6699 8.67572 41.0285 8.56975 41.3901 8.59404H42.6111V6.29786C42.6019 6.09911 42.6341 5.90064 42.7057 5.71561C42.7773 5.53058 42.8865 5.36322 43.0262 5.22464C43.335 4.94635 43.7383 4.80297 44.1495 4.82531C44.5528 4.80578 44.9475 4.94922 45.2483 5.22464C45.388 5.36322 45.4972 5.53058 45.5688 5.71561C45.6404 5.90064 45.6726 6.09911 45.6634 6.29786V8.59681H47.739C48.1007 8.57252 48.4593 8.6785 48.7524 8.89631C48.873 9.00442 48.9677 9.13943 49.0291 9.2909C49.0905 9.44237 49.117 9.60625 49.1065 9.76986C49.117 9.93347 49.0905 10.0973 49.0291 10.2488C48.9677 10.4003 48.873 10.5353 48.7524 10.6434C48.4593 10.8612 48.1007 10.9672 47.739 10.9429H45.6634V16.6085C45.6634 17.8398 46.2169 18.497 47.3239 18.5802L47.9859 18.6273Z" fill="#DCDFED"/>
<path d="M128.37 0H124.682C124.635 0.000182614 124.59 0.0193785 124.557 0.0534035C124.523 0.0874285 124.505 0.133524 124.504 0.181642V0.835416C124.505 0.883534 124.523 0.929629 124.557 0.963654C124.59 0.99768 124.635 1.01688 124.682 1.01706H125.944V4.67001C125.945 4.71813 125.963 4.76422 125.997 4.79825C126.03 4.83227 126.075 4.85147 126.122 4.85165H126.928C126.975 4.85147 127.02 4.83227 127.053 4.79825C127.087 4.76422 127.106 4.71813 127.106 4.67001V1.01706H128.368C128.415 1.01688 128.46 0.99768 128.493 0.963654C128.527 0.929629 128.546 0.883534 128.546 0.835416V0.181642C128.547 0.134983 128.53 0.0896987 128.499 0.0556698C128.468 0.0216409 128.424 0.00162907 128.379 0H128.37ZM134 4.65545L133.645 0.167776C133.641 0.122292 133.62 0.0799187 133.587 0.0490869C133.555 0.018255 133.511 0.0012253 133.467 0.00138648H132.495C132.459 0.00159931 132.423 0.0134471 132.393 0.0352988C132.363 0.0571504 132.341 0.0879317 132.329 0.123406L131.68 2.05076C131.573 2.36274 131.441 2.85081 131.441 2.85081H131.428C131.428 2.85081 131.296 2.36551 131.188 2.05076L130.54 0.123406C130.528 0.0880975 130.505 0.0574836 130.475 0.0356728C130.445 0.013862 130.41 0.00189804 130.373 0.00138648H129.403C129.359 0.00185269 129.316 0.0190963 129.283 0.0498066C129.25 0.0805168 129.23 0.122529 129.225 0.167776L128.863 4.65545C128.861 4.67926 128.864 4.70324 128.871 4.726C128.878 4.74876 128.89 4.76986 128.905 4.78808C128.92 4.80631 128.938 4.82131 128.959 4.83221C128.98 4.84312 129.003 4.84973 129.026 4.85165H129.851C129.896 4.85128 129.939 4.8337 129.972 4.80238C130.005 4.77107 130.025 4.72829 130.028 4.68249L130.164 2.66709C130.179 2.39577 130.179 2.12379 130.164 1.85247H130.178C130.178 1.85247 130.336 2.36135 130.444 2.66709L130.897 3.95176C130.91 3.98673 130.933 4.01696 130.962 4.03839C130.992 4.05982 131.028 4.07144 131.064 4.0717H131.806C131.842 4.07154 131.878 4.05996 131.907 4.03851C131.937 4.01707 131.96 3.98679 131.972 3.95176L132.428 2.66709C132.535 2.36204 132.694 1.85247 132.694 1.85247H132.702C132.687 2.12379 132.687 2.39577 132.702 2.66709L132.838 4.68249C132.841 4.72841 132.861 4.77137 132.894 4.80275C132.927 4.83413 132.971 4.8516 133.016 4.85165H133.815C133.838 4.8522 133.862 4.848 133.884 4.83927C133.906 4.83054 133.926 4.81747 133.943 4.8008C133.96 4.78412 133.974 4.76417 133.983 4.74209C133.993 4.72 133.998 4.69622 133.999 4.67209C133.999 4.66655 133.999 4.66099 133.999 4.65545H134Z" fill="#4185F4"/>
<path d="M32.3422 4.84128C32.4421 4.85088 32.5388 4.8819 32.6261 4.93231C32.7134 4.98272 32.7893 5.0514 32.8489 5.13385C33.2247 5.52348 33.595 5.91865 33.9885 6.28956C34.2123 6.49755 34.0407 6.60085 33.9138 6.71524C33.787 6.82964 33.7056 7.07645 33.4716 6.8227C33.0646 6.38108 32.6366 5.95748 32.2113 5.53318C32.1253 5.41969 32.0607 5.29086 32.0207 5.15326C30.6261 5.80218 29.6826 5.63371 28.9995 4.61111C28.7421 4.21185 28.6304 3.73265 28.6841 3.25762C28.7378 2.78258 28.9535 2.34205 29.2933 2.01334C29.6215 1.66195 30.0625 1.44287 30.5356 1.39603C31.0088 1.3492 31.4826 1.47774 31.8708 1.75821C32.8326 2.44457 32.9839 3.40547 32.3422 4.84128ZM32.0634 3.51571C32.0686 3.24538 31.9952 2.97956 31.8525 2.75192C31.7098 2.52428 31.5042 2.34506 31.2617 2.23696C31.0192 2.12886 30.7508 2.09675 30.4905 2.14469C30.2302 2.19263 29.9896 2.31848 29.7993 2.50627C29.609 2.69407 29.4775 2.93538 29.4215 3.19962C29.3655 3.46386 29.3875 3.73915 29.4846 3.99062C29.5818 4.24208 29.7499 4.45841 29.9674 4.61219C30.185 4.76597 30.4423 4.85028 30.7068 4.85445C31.0603 4.86039 31.4016 4.72277 31.656 4.4718C31.9103 4.22082 32.0568 3.87698 32.0634 3.51571Z" fill="#4185F4"/>
<path d="M58.6895 20.9985C57.4871 21.0059 56.2902 20.8335 55.1366 20.4868C54.149 20.2112 53.2239 19.7401 52.4139 19.1002C52.2309 18.9637 52.0838 18.7829 51.9858 18.5741C51.8878 18.3653 51.8419 18.135 51.8523 17.9036C51.846 17.5727 51.9541 17.2502 52.1575 16.9926C52.2396 16.875 52.3475 16.7788 52.4726 16.7116C52.5978 16.6444 52.7365 16.6082 52.8778 16.6058C53.2361 16.6267 53.5821 16.7465 53.879 16.9524C54.5445 17.4506 55.2875 17.8303 56.0767 18.0755C56.9024 18.3161 57.7578 18.4328 58.6163 18.4222C59.568 18.4831 60.5169 18.2647 61.3512 17.7927C61.6565 17.5965 61.9053 17.321 62.0721 16.9943C62.239 16.6676 62.3179 16.3014 62.3008 15.9333C62.3044 15.6284 62.2227 15.3289 62.0653 15.0699C61.9079 14.811 61.6813 14.6035 61.4122 14.4718C60.4703 14.0105 59.4726 13.6789 58.4453 13.486C57.2471 13.244 56.0768 12.875 54.9534 12.385C54.1524 12.045 53.4533 11.4949 52.9267 10.7904C52.4478 10.0619 52.2083 9.19649 52.243 8.31955C52.2304 7.32554 52.53 6.35361 53.0976 5.54638C53.7059 4.69978 54.5292 4.03948 55.4785 3.63706C56.5626 3.16583 57.7313 2.93202 58.9093 2.9507C60.9679 2.85868 62.9893 3.5326 64.5989 4.84755C64.7815 4.99542 64.9348 5.17754 65.0506 5.38415C65.1474 5.59022 65.1939 5.81713 65.1863 6.04555C65.1925 6.37645 65.0844 6.69901 64.8811 6.95654C64.7989 7.07407 64.691 7.17029 64.5659 7.23748C64.4408 7.30466 64.302 7.34094 64.1607 7.34339C64.0071 7.34493 63.8543 7.3196 63.709 7.26852C63.5185 7.19212 63.3347 7.09935 63.1595 6.9912C62.5644 6.53359 61.9114 6.16045 61.2182 5.88194C60.4767 5.62184 59.6957 5.49928 58.912 5.52004C57.989 5.46944 57.0729 5.70897 56.287 6.2064C55.9798 6.41365 55.7297 6.69804 55.5608 7.03235C55.392 7.36667 55.3099 7.7397 55.3224 8.11572C55.3125 8.4323 55.3868 8.7457 55.5373 9.02258C55.6878 9.29946 55.9089 9.52946 56.1771 9.68811C57.0882 10.1814 58.0684 10.528 59.0829 10.7156C60.2903 10.9708 61.4712 11.3422 62.6101 11.8248C63.4184 12.1599 64.1318 12.6961 64.6857 13.3847C65.1822 14.0686 65.4363 14.9048 65.4061 15.7558C65.422 16.736 65.1264 17.6949 64.5636 18.4887C63.9554 19.3163 63.1352 19.956 62.1936 20.3371C61.0811 20.7965 59.8892 21.0214 58.6895 20.9985ZM77.2479 17.4294C77.3769 17.4258 77.5049 17.4533 77.6215 17.5097C77.7382 17.5661 77.8402 17.6497 77.9194 17.7539C78.1014 18.0058 78.1921 18.3146 78.1758 18.6274C78.1581 18.9082 78.0642 19.1784 77.9046 19.4076C77.745 19.6369 77.526 19.8161 77.2723 19.9252C76.6789 20.2581 76.0473 20.5143 75.392 20.6879C74.7397 20.8725 74.0665 20.969 73.3897 20.9749C72.556 21.0193 71.7221 20.8919 70.9376 20.6001C70.1531 20.3083 69.4341 19.8581 68.8234 19.2763C68.2462 18.6613 67.7989 17.9316 67.5091 17.1326C67.2192 16.3336 67.0931 15.4822 67.1385 14.6313C67.1166 13.4805 67.368 12.3415 67.871 11.3118C68.3329 10.3756 69.0494 9.59559 69.9344 9.06553C70.8504 8.52529 71.8927 8.24925 72.9501 8.26686C73.9332 8.24288 74.904 8.4931 75.7583 8.99065C76.558 9.47569 77.2027 10.1876 77.6141 11.04C78.0732 12.0117 78.2992 13.0811 78.2735 14.1598C78.2735 14.8753 77.9642 15.233 77.3455 15.233H70.1393C70.1513 16.166 70.488 17.064 71.0889 17.7663C71.4075 18.0536 71.7789 18.2733 72.1813 18.4125C72.5837 18.5518 73.0093 18.6078 73.4331 18.5775C73.9027 18.5862 74.3706 18.5188 74.8195 18.3778C75.281 18.2197 75.7339 18.0364 76.1761 17.8287C76.5014 17.619 76.8668 17.4828 77.2479 17.4294ZM73.0234 10.466C72.6554 10.4486 72.2879 10.5108 71.945 10.6484C71.6021 10.786 71.2914 10.996 71.0333 11.2647C70.4908 11.9064 70.1758 12.7163 70.1393 13.5636H75.6606C75.6887 12.7301 75.4294 11.913 74.9281 11.2549C74.6869 10.9884 74.3911 10.7795 74.0619 10.6432C73.7327 10.5068 73.3781 10.4463 73.0234 10.466ZM85.6968 8.26963C87.3573 8.26963 88.5904 8.68977 89.3962 9.53003C90.2021 10.3703 90.605 11.6473 90.605 13.3612V19.451C90.6157 19.6457 90.5867 19.8404 90.5199 20.023C90.4531 20.2056 90.35 20.372 90.217 20.5118C90.0715 20.646 89.9013 20.7493 89.7164 20.8157C89.5315 20.8821 89.3355 20.9103 89.1398 20.8986C88.9494 20.9058 88.7594 20.8739 88.5812 20.8048C88.4029 20.7357 88.24 20.6309 88.102 20.4965C87.9673 20.36 87.8618 20.1963 87.7924 20.0158C87.723 19.8353 87.6913 19.642 87.6991 19.4483V18.9019C87.4334 19.5394 86.9758 20.0737 86.3927 20.4272C85.7675 20.8007 85.0533 20.9898 84.3293 20.9735C83.5775 20.9835 82.834 20.8125 82.1588 20.4743C81.5349 20.1659 81.0035 19.6918 80.6204 19.1016C80.2464 18.5248 80.0498 17.8468 80.056 17.1549C80.0132 16.3868 80.2527 15.6302 80.7276 15.0334C81.3248 14.4369 82.0884 14.0445 82.913 13.9102C84.2891 13.6449 85.6887 13.5287 87.0887 13.5636H87.6991V12.9896C87.7536 12.35 87.5705 11.7129 87.1863 11.205C86.9624 10.9994 86.6993 10.8434 86.4136 10.7468C86.1278 10.6501 85.8256 10.6149 85.5259 10.6435C85.0383 10.6457 84.5535 10.7171 84.0851 10.8556C83.5968 10.997 83.0189 11.2009 82.3514 11.4671C82.0668 11.6383 81.7511 11.7486 81.4235 11.7916C81.2874 11.7954 81.1522 11.7683 81.0276 11.7122C80.903 11.6561 80.7922 11.5724 80.7031 11.4671C80.5088 11.2302 80.4086 10.9273 80.4223 10.6185C80.4162 10.3572 80.4886 10.1002 80.6299 9.88223C80.8143 9.63426 81.0525 9.43348 81.3258 9.2957C81.9692 8.95122 82.6557 8.69837 83.3661 8.54418C84.1306 8.36413 84.9123 8.27205 85.6968 8.26963ZM84.9398 18.7272C85.3106 18.7406 85.68 18.6729 86.0232 18.5287C86.3664 18.3845 86.6755 18.1672 86.9299 17.8911C87.4542 17.3029 87.7306 16.5273 87.6991 15.7322V15.2081H87.2596C86.4106 15.1925 85.5617 15.2426 84.72 15.3578C84.2483 15.4019 83.799 15.5838 83.4258 15.882C83.2934 16.0144 83.1901 16.1742 83.1227 16.3506C83.0553 16.5271 83.0255 16.7161 83.0351 16.9053C83.028 17.1514 83.0734 17.3961 83.1683 17.6224C83.2632 17.8487 83.4053 18.0511 83.5846 18.2156C83.9549 18.5583 84.4404 18.7416 84.9398 18.7272ZM100.128 8.31955C100.305 8.29395 100.485 8.30533 100.657 8.35301C100.829 8.40068 100.99 8.48365 101.13 8.59687C101.257 8.721 101.356 8.87241 101.419 9.04022C101.482 9.20803 101.509 9.38809 101.496 9.56747C101.51 9.74708 101.49 9.92783 101.435 10.0992C101.381 10.2706 101.293 10.4292 101.178 10.5658C100.85 10.8291 100.448 10.9778 100.031 10.9901L99.2981 11.0678C98.8984 11.0801 98.5052 11.1749 98.1422 11.3465C97.7793 11.518 97.454 11.7628 97.1859 12.0661C96.7254 12.6708 96.4877 13.4218 96.5143 14.1876V19.4288C96.5268 19.6356 96.4938 19.8425 96.4177 20.0344C96.3416 20.2264 96.2245 20.3985 96.0748 20.5381C95.7676 20.8009 95.3763 20.9386 94.976 20.925C94.5795 20.94 94.192 20.8019 93.8907 20.5381C93.7442 20.3965 93.6301 20.2238 93.5562 20.0321C93.4824 19.8404 93.4507 19.6345 93.4633 19.4288V9.76714C93.4512 9.56694 93.4833 9.36651 93.5573 9.18072C93.6312 8.99493 93.7452 8.82855 93.8907 8.69393C94.1877 8.4399 94.5658 8.30662 94.9529 8.31955C95.3274 8.30194 95.6944 8.43142 95.9785 8.68145C96.113 8.81499 96.2175 8.97674 96.285 9.15554C96.3524 9.33435 96.3811 9.52598 96.3692 9.71722V10.7156C96.6484 10.0198 97.1288 9.42765 97.7461 9.01839C98.3579 8.6186 99.0601 8.38653 99.7851 8.34451L100.128 8.31955ZM107.625 20.9735C106.531 20.9972 105.45 20.7306 104.487 20.1998C103.594 19.6941 102.867 18.9288 102.399 18.0007C101.893 16.9722 101.641 15.8323 101.667 14.6812C101.644 13.514 101.909 12.3598 102.436 11.3243C102.928 10.3744 103.678 9.59078 104.597 9.0683C105.577 8.52245 106.68 8.24717 107.796 8.26963C108.444 8.27246 109.089 8.36576 109.713 8.54695C110.311 8.71034 110.882 8.96262 111.408 9.2957C111.641 9.42594 111.836 9.61648 111.974 9.84819C112.112 10.0799 112.188 10.3446 112.194 10.6157C112.209 10.9322 112.118 11.2445 111.938 11.5018C111.86 11.6087 111.759 11.6951 111.642 11.7537C111.525 11.8124 111.396 11.8415 111.266 11.8387C111.073 11.8356 110.882 11.7932 110.704 11.7139C110.503 11.6275 110.307 11.5274 110.118 11.4144C109.792 11.2137 109.449 11.0425 109.093 10.9028C108.732 10.772 108.352 10.7086 107.969 10.7156C107.53 10.6889 107.091 10.7663 106.686 10.9416C106.281 11.1169 105.922 11.3855 105.635 11.7264C105.038 12.5683 104.749 13.5969 104.817 14.634C104.752 15.6627 105.041 16.6822 105.635 17.5154C105.921 17.8561 106.28 18.1247 106.685 18.3003C107.089 18.4758 107.528 18.5536 107.967 18.5276C108.337 18.5339 108.705 18.4704 109.052 18.3404C109.416 18.1931 109.771 18.0222 110.114 17.8287C110.317 17.7005 110.53 17.5879 110.749 17.4918C110.919 17.4188 111.102 17.3806 111.286 17.3795C111.415 17.3798 111.542 17.4114 111.657 17.4716C111.772 17.5319 111.871 17.6191 111.946 17.7261C112.132 17.9769 112.227 18.2853 112.217 18.5997C112.223 18.8576 112.16 19.1124 112.034 19.3359C111.883 19.5712 111.678 19.7642 111.436 19.8975C110.891 20.2492 110.298 20.5152 109.676 20.6865C109.008 20.8779 108.318 20.9744 107.625 20.9735ZM120.982 8.26963C123.782 8.26963 125.182 9.94185 125.182 13.2863V19.4261C125.193 19.6277 125.163 19.8294 125.094 20.0185C125.024 20.2075 124.917 20.3798 124.779 20.5242C124.629 20.6626 124.453 20.7691 124.263 20.8377C124.072 20.9062 123.87 20.9354 123.668 20.9236C123.257 20.9459 122.854 20.8025 122.545 20.5242C122.404 20.3816 122.294 20.21 122.222 20.0207C122.15 19.8314 122.119 19.6287 122.13 19.4261V13.2863C122.187 12.5981 122 11.9119 121.605 11.352C121.39 11.1337 121.131 10.9659 120.847 10.8603C120.562 10.7547 120.258 10.7138 119.956 10.7405C119.566 10.7225 119.176 10.7888 118.812 10.935C118.448 11.0812 118.118 11.3041 117.844 11.5891C117.572 11.8958 117.362 12.2543 117.226 12.644C117.09 13.0337 117.03 13.447 117.051 13.8603V19.4261C117.061 19.6287 117.03 19.8314 116.958 20.0207C116.887 20.21 116.777 20.3816 116.635 20.5242C116.327 20.8025 115.923 20.9459 115.512 20.9236C115.31 20.9354 115.108 20.9062 114.918 20.8377C114.727 20.7691 114.551 20.6626 114.401 20.5242C114.263 20.3798 114.156 20.2075 114.087 20.0185C114.017 19.8294 113.987 19.6277 113.998 19.4261V4.5009C113.991 4.30496 114.025 4.10974 114.099 3.92874C114.173 3.74774 114.284 3.5853 114.426 3.45265C114.732 3.17838 115.13 3.03535 115.537 3.05331C115.936 3.03347 116.328 3.16702 116.635 3.42769C116.774 3.55623 116.884 3.71469 116.956 3.89165C117.027 4.06861 117.06 4.25965 117.051 4.45098V10.2663C117.447 9.62664 118.009 9.11203 118.674 8.77989C119.395 8.42921 120.185 8.25452 120.982 8.26963Z" fill="#4185F4"/>
</svg>
